<svg xmlns="http://www.w3.org/2000/svg" version="1.0" width="1000.000000pt" height="1000.000000pt" viewBox="0 0 1000.000000 1000.000000" preserveAspectRatio="xMidYMid meet">
<g transform="translate(0.000000,1000.000000) scale(0.100000,-0.100000)" fill="currentColor" stroke="none">
<path d="M1845 7935 c-90 -20 -168 -52 -234 -96 -70 -47 -111 -95 -149 -176 -27 -58 -27 -58 -30 -325 -4 -288 0 -311 51 -340 17 -10 282 -14 1272 -18 l1250 -5 58 -23 c81 -33 168 -116 209 -200 l33 -67 0 -165 c0 -164 0 -166 -31 -230 -39 -82 -108 -151 -193 -193 l-66 -32 -1263 -5 -1264 -5 -29 -33 c-28 -31 -29 -35 -29 -140 0 -83 4 -113 16 -131 37 -52 22 -51 896 -51 481 0 841 -4 881 -10 135 -20 253 -104 311 -221 57 -118 59 -341 3 -462 -30 -66 -102 -146 -162 -182 -95 -55 -89 -55 -980 -55 -564 0 -832 -4 -860 -11 -21 -6 -54 -26 -72 -44 l-33 -33 0 -539 c0 -455 2 -548 16 -598 38 -148 156 -270 305 -316 50 -16 92 -19 239 -19 210 0 210 0 210 90 0 171 73 383 188 545 263 371 740 525 1171 379 384 -130 667 -498 688 -894 3 -52 10 -101 15 -107 8 -10 229 -13 1044 -13 568 0 1035 3 1037 8 3 4 10 58 16 119 18 180 69 329 158 467 184 285 485 458 823 473 191 9 352 -29 529 -123 108 -57 171 -106 261 -201 168 -176 262 -393 279 -643 l6 -95 320 0 320 0 69 33 c127 60 203 143 245 270 20 59 21 81 21 614 0 660 -9 761 -81 914 -57 122 -132 174 -320 223 -287 75 -369 104 -459 161 -100 64 -126 106 -359 575 -147 296 -233 456 -261 490 -72 86 -160 153 -275 210 -159 78 -202 85 -558 85 -275 0 -296 1 -318 19 l-24 19 -6 404 c-3 243 -9 415 -16 433 -40 114 -120 206 -221 253 l-57 27 -2265 2 c-1851 1 -2276 -1 -2325 -12z m5442 -1470 c137 -32 270 -111 372 -221 59 -64 80 -102 271 -482 177 -354 204 -414 192 -425 -12 -9 -171 -13 -677 -15 -642 -2 -663 -2 -686 17 l-24 19 -3 541 c-2 531 -2 541 18 561 19 19 32 20 248 20 164 0 244 -4 289 -15z"/>
<path d="M1049 6752 c-43 -23 -59 -38 -82 -82 -28 -53 -29 -60 -25 -167 3 -105 5 -114 33 -154 17 -23 50 -53 74 -66 l45 -23 1442 2 1442 3 44 30 c25 18 53 49 66 75 21 41 23 56 20 162 -3 111 -4 118 -33 159 -16 23 -48 52 -70 63 -40 21 -42 21 -1471 24 l-1431 2 -54 -28z"/>
<path d="M529 5467 c-29 -15 -54 -40 -74 -71 -25 -42 -30 -59 -33 -140 -5 -119 8 -169 62 -222 32 -33 53 -44 96 -53 40 -8 410 -11 1350 -9 l1295 3 42 23 c24 12 55 41 70 64 26 38 28 50 31 159 4 127 -7 167 -60 216 -59 56 15 53 -1416 53 l-1319 0 -44 -23z"/>
<path d="M3092 4030 c-294 -53 -533 -268 -624 -560 -19 -63 -23 -97 -23 -215 0 -119 4 -151 23 -215 85 -270 282 -465 548 -542 114 -33 316 -33 424 1 348 108 570 402 570 756 0 351 -234 660 -570 755 -86 24 -265 34 -348 20z m284 -470 c73 -36 126 -91 163 -169 57 -122 24 -290 -76 -382 -72 -66 -143 -94 -238 -94 -66 0 -90 5 -136 26 -79 37 -133 90 -171 167 -29 58 -33 76 -33 147 0 71 4 88 33 147 85 174 285 243 458 158z"/>
<path d="M7258 4030 c-316 -57 -563 -284 -638 -584 -27 -109 -27 -274 0 -382 72 -282 269 -480 565 -570 93 -29 304 -26 410 4 266 77 480 295 551 562 25 90 25 301 0 389 -75 274 -292 492 -561 565 -70 19 -260 29 -327 16z m207 -445 c157 -41 257 -169 257 -330 1 -296 -348 -453 -566 -254 -33 30 -66 73 -83 107 -24 50 -28 69 -28 147 0 71 5 100 21 136 43 92 134 169 233 195 62 17 96 17 166 -1z"/>
</g>
</svg>
